<?xml version="1.0" encoding="utf-8"?>
<!-- Generator: Adobe Illustrator 27.8.0, SVG Export Plug-In . SVG Version: 6.00 Build 0)  -->
<svg version="1.1" id="Camada_1" xmlns="http://www.w3.org/2000/svg" xmlns:xlink="http://www.w3.org/1999/xlink" x="0px" y="0px"
	 viewBox="0 0 580.4 266.5" style="enable-background:new 0 0 580.4 266.5;" xml:space="preserve">
<style type="text/css">
	.st0{fill:#012AFE;}
	.st1{fill:#1D1D1B;}
</style>
<g>
	<g>
		<g>
			<path class="st0" d="M327,126.3c-12.6,0-21.4-2.4-26.5-7.3c-5.1-4.9-7.6-13.1-7.6-24.8V31.9c0-11.5,2.5-19.8,7.6-24.6
				C305.6,2.4,314.4,0,327,0c12.7,0,21.6,2.6,26.6,7.7c5,5.1,7.5,13.5,7.5,25.2h-22.4l-0.4-5.3c-0.4-2.9-0.8-4.8-1.3-5.7
				c-0.5-1-1.8-1.5-4-1.5h-6c-4.5,0-7.8,0.6-9.6,1.8c-1.9,1.2-2.8,4.4-2.8,9.7v62.3c0,3.5,0.5,6,1.4,7.6c0.9,1.6,2.4,2.5,4.5,2.9
				c2.1,0.4,4.9,0.7,8.4,1h1c4.2,0,6.8-1.5,7.9-4.4c1.1-2.9,1.7-7.6,1.7-13.9V76.5h-17.9V55.8H361v22.8c0,7.8-0.3,14.7-1,20.6
				c-0.7,6-2.1,10.9-4.3,14.9c-2.2,4-5.6,7-10.2,9C341,125.3,334.8,126.3,327,126.3z"/>
			<path class="st0" d="M405.2,126.3c-12.6,0-21.4-2.5-26.4-7.5c-5-5-7.5-13.2-7.5-24.6V32.1c0-11.5,2.5-19.8,7.5-24.7
				c5-4.9,13.8-7.4,26.4-7.4c12.5,0,21.2,2.4,26.4,7.3c5.1,4.9,7.7,13.1,7.7,24.8V88c0,6.2-0.3,11.7-1,16.5
				c-0.7,4.8-2.1,8.8-4.4,12.1c-2.3,3.2-5.7,5.7-10.2,7.3C419.2,125.5,413,126.3,405.2,126.3z M405.6,105.3c5.7,0,9.1-1.4,10.2-4.2
				c1.1-2.8,1.7-7.2,1.7-13.1V32.1c0-3.8-0.2-6.5-0.7-8.1c-0.5-1.6-1.5-2.6-3.2-2.9c-1.7-0.3-4.5-0.5-8.4-0.5
				c-3.9,0-6.7,0.3-8.5,0.9c-1.8,0.6-2.9,1.7-3.3,3.3c-0.5,1.6-0.7,4.1-0.7,7.3l0.4,56.8c0,4.4,0.3,7.8,0.8,10.1
				c0.5,2.3,1.7,4,3.5,4.9C399.2,104.8,402,105.3,405.6,105.3z"/>
			<path class="st0" d="M446.3,126.3v-27c0-12.1,0.6-23.6,1.7-34.7c1.1-11.1,3.6-22,7.4-32.6c3.8-10.6,9.8-21.3,17.8-31.9h14
				c8.2,10.5,14.2,21.2,18.1,32c3.9,10.8,6.4,21.8,7.5,33c1.1,11.2,1.7,22.6,1.7,34.2v27h-21.8v-24.9h-24.7v24.9H446.3z M467.9,81
				h24.5c-0.5-9.1-1.8-18.2-3.7-27.2c-1.9-9.1-4.8-17.6-8.6-25.5c-3.9,8.2-6.8,16.7-8.8,25.7C469.4,62.9,468.3,71.9,467.9,81z"/>
			<path class="st0" d="M534.4,126.3V20.4h-20.2V0h62.1v20.4H556v105.9H534.4z"/>
		</g>
		<g>
			<path class="st0" d="M306.8,265.2V159.3h-20.2v-20.4h62.1v20.4h-20.2v105.9H306.8z"/>
			<path class="st0" d="M370.1,266.5V140.6h22v125.9H370.1z"/>
			<path class="st0" d="M417.5,265.2V139.1h34.2c10.2,0,17.8,1.5,22.8,4.5c4.9,3,8.2,7.1,9.7,12.3c1.6,5.2,2.3,11.2,2.3,17.9v4.3
				l-0.2,4.3v3.5l-0.2,3.9c0,7.9-1.1,14.1-3.2,18.5c-2.1,4.4-5.3,7.6-9.3,9.4c-4.1,1.9-9,3-14.8,3.4c-5.8,0.4-12.2,0.6-19.4,0.6
				v43.6H417.5z M439.5,201.2c6.1,0,10.8-0.1,14.2-0.2c3.4-0.1,5.8-0.6,7.4-1.3c1.6-0.7,2.5-1.9,2.9-3.5c0.4-1.6,0.6-4,0.6-7.1
				v-17.5c0-4.3-1-7.3-2.9-9c-1.9-1.7-4.4-2.6-7.4-2.8c-3-0.2-6.1-0.3-9.3-0.3h-5.4V201.2z"/>
			<path class="st0" d="M532.7,265.2c-7.9,0-14.2-0.9-18.8-2.6c-4.6-1.8-8-4.3-10.2-7.6c-2.2-3.3-3.6-7.4-4.2-12.4
				c-0.6-4.9-0.9-10.5-0.9-16.7h21.6v3.7l-0.2,3.5v3.1c0,3.2,0.6,5.4,1.8,6.6c1.2,1.2,4.3,1.8,9.3,1.8h3.3c3.2-0.3,5.6-0.5,7.1-0.9
				c1.5-0.3,2.4-1.1,2.8-2.3c0.4-1.2,0.6-3.3,0.6-6.1v-2.1l0.2-2.5v-2.7l0.2-5.1c0-0.9,0-2.3-0.1-4.1c-0.1-1.8-0.4-4-0.9-6.6
				c-0.5-1.2-2-1.9-4.4-2.2c-2.4-0.3-4.6-0.5-6.5-0.5h-0.8c-7.9,0-14.2-0.8-18.8-2.5c-4.6-1.7-8-4.2-10.2-7.4
				c-2.2-3.2-3.6-7.2-4.2-12c-0.6-4.7-0.9-10.2-0.9-16.4c0-11.5,2.5-19.8,7.6-24.6c5.1-4.9,13.9-7.3,26.5-7.3
				c12.7,0,21.6,2.6,26.6,7.7c5,5.1,7.5,13.5,7.5,25.2h-21.8c0-4.2-0.2-7.1-0.6-8.9c-0.4-1.8-1.5-2.8-3.2-3.1
				c-1.8-0.3-4.6-0.5-8.5-0.5c-3.9,0-6.7,0.2-8.5,0.6c-1.8,0.4-2.9,1.4-3.3,3c-0.5,1.6-0.7,4.2-0.7,7.9v3.1l-0.2,4.5
				c0,0.7,0,1.7,0.1,3.2c0.1,1.5,0.4,3.1,1.1,5c0.1,0.4,1.2,0.8,3.2,1.3c2,0.5,4.8,0.7,8.3,0.7c8.6,0,15.2,1,19.8,3
				c4.7,2,8,4.8,10,8.4c2,3.6,3.2,7.8,3.6,12.6c0.4,4.9,0.6,10.2,0.6,16.1v4.3c0,11.7-2.5,19.9-7.5,24.8
				C554.2,262.8,545.4,265.2,532.7,265.2z"/>
		</g>
	</g>
	<g>
		<path class="st0" d="M181.2,80.4c0.4,0.7,1.1,1.2,1.9,1.2h19.3c0.5,0,1-0.2,1.4-0.5l29.9-25.6c1.5-1.3,0.6-3.8-1.4-3.8h-62.1
			c-1.6,0-2.6,1.7-1.9,3.1L181.2,80.4z"/>
		<path class="st0" d="M255.1,157l-41.3-41.3c-1.7-1.7-4.6-0.8-5,1.6l-5.9,34.5c-0.2,1.4-1.5,2.5-3,2.5l-86.8-1.3
			c-1.8,0-3.2-1.7-2.9-3.5l6-31.6c0.4-2.3,3.3-3.2,5-1.6l10.1,9.9l-1.3,12.3c-0.2,2.3,0.5,1.9,1.5,0.7c1.4-1.5,3.1-2.5,4.9-3.1
			c0.6-0.2,1.3,0.3,1.2,1v0c-0.4,2.3-0.4,2.2,1.5,0.8c1.9-1.4,0.9-0.7,1.5-1c0.6-0.3,1.4-0.2,2,0.3l0.9,0.9c0.9,0.9,2.2,1.1,3.4,0.6
			l3.8-1.8l39.8-18.9c1.4-0.7,2-2.4,1.3-3.8l-31.9-64.6c-0.2-0.4-0.3-0.9-0.3-1.3V14.4c0-0.4-0.2-0.9-0.5-1.2L136.6,0.3l-2.4,0
			l-33.3,28.3c-4.7,3.9-4.7,4,1.5,2.9s27-3.4,27-3.4c1-0.2,2,0.6,2,1.7v11.9c0,1.7-1.3,3-3,3L93,44.3c-1.6,0-3-1.3-3-3
			c0,0,0.2-28.5,0-27.9c-0.2,0.6,0,0,0,0C82.9,8.1,67.2,0,67.2,0l-2.4,0c0,0-30.9,26.5-35.2,30.4s-5.9,4.4,1.5,2.9
			c7.7-1.2,27.6-5.3,27.6-5.3c1-0.2,2,0.6,2,1.7v18.8c0,1.6-1.3,3-3,3H3c-2.7,0-4,3.2-2.1,5.1l30.7,30.6c0.6,0.6,1.4,0.9,2.3,0.9
			l24.4-0.2c2.5,0,4,2.7,2.7,4.9l-35.3,57.1c-1.2,2,0.2,4.5,2.5,4.5l15.5,0.1c2.6,0,3.9,3.2,2.1,5.1L23,182.3
			c-0.9,0.9-1.1,2.3-0.5,3.5l42.1,79.1c1.1,2,3.9,2.1,5.1,0.2l31.1-49.5c1.2-2,4.2-1.8,5.2,0.3l22.3,46.8c1,2.1,3.9,2.3,5.2,0.4
			l28.4-43.4c1.3-2,4.3-1.7,5.2,0.4l19.6,44.1c1,2.2,4,2.4,5.3,0.3l63.6-103.9C256.3,159.5,256.1,158,255.1,157z M105.1,89.6
			c-0.3-0.2-0.5-0.4-0.7-0.7c-7.9-11.1,4.3-23.3,15.4-15.4c0.3,0.2,0.5,0.4,0.7,0.7C128.4,85.3,116.2,97.5,105.1,89.6z"/>
	</g>
</g>
</svg>
