<?xml version="1.0" encoding="utf-8"?>
<!-- Generator: Adobe Illustrator 27.8.0, SVG Export Plug-In . SVG Version: 6.00 Build 0)  -->
<svg version="1.1" id="Camada_1" xmlns="http://www.w3.org/2000/svg" xmlns:xlink="http://www.w3.org/1999/xlink" x="0px" y="0px"
	 viewBox="0 0 475.9 440.5" style="enable-background:new 0 0 475.9 440.5;" xml:space="preserve">
<style type="text/css">
	.st0{fill:#012AFE;}
	.st1{fill:#1D1D1B;}
</style>
<g>
	<g>
		<path class="st0" d="M66.5,207.4c-20.7,0-35.2-4-43.5-12s-12.5-21.6-12.5-40.8V52.4c0-19,4.2-32.4,12.5-40.4C31.3,4,45.8,0,66.5,0
			c20.9,0,35.4,4.2,43.6,12.6c8.2,8.4,12.3,22.2,12.3,41.4H85.7L85,45.4c-0.6-4.7-1.3-7.8-2.1-9.4c-0.7-1.6-2.9-2.4-6.6-2.4h-9.9
			c-7.5,0-12.7,1-15.8,2.9c-3.1,1.9-4.6,7.2-4.6,16v102.3c0,5.8,0.7,9.9,2.2,12.5c1.5,2.6,3.9,4.2,7.4,4.8c3.4,0.6,8,1.2,13.7,1.6
			H71c6.8,0,11.1-2.4,12.9-7.2c1.8-4.8,2.7-12.4,2.7-22.9v-17.9H57.2V91.7h65.2v37.4c0,12.8-0.5,24.1-1.6,33.9
			c-1.1,9.8-3.4,18-7,24.5c-3.6,6.5-9.2,11.5-16.8,14.9C89.4,205.7,79.3,207.4,66.5,207.4z"/>
		<path class="st0" d="M195,207.4c-20.7,0-35.1-4.1-43.3-12.3c-8.2-8.2-12.3-21.7-12.3-40.4v-102c0-19,4.1-32.5,12.3-40.6
			C159.9,4.1,174.3,0,195,0c20.5,0,34.9,4,43.3,12c8.4,8,12.6,21.6,12.6,40.8v91.7c0,10.2-0.5,19.3-1.6,27.2
			c-1.1,7.9-3.5,14.5-7.2,19.8c-3.7,5.3-9.3,9.3-16.8,12C217.9,206.1,207.8,207.4,195,207.4z M195.6,172.9c9.4,0,15-2.3,16.8-6.9
			c1.8-4.6,2.7-11.8,2.7-21.6V52.7c0-6.2-0.4-10.6-1.1-13.3c-0.7-2.7-2.5-4.3-5.3-4.8c-2.8-0.5-7.4-0.8-13.7-0.8
			c-6.4,0-11,0.5-13.9,1.4c-2.9,1-4.7,2.8-5.4,5.4c-0.8,2.7-1.1,6.7-1.1,12l0.6,93.3c0,7.2,0.4,12.8,1.3,16.6c0.8,3.8,2.8,6.5,5.8,8
			C185.2,172.2,189.6,172.9,195.6,172.9z"/>
		<path class="st0" d="M262.4,207.4V163c0-19.8,0.9-38.8,2.7-57.1s5.9-36.1,12.2-53.5c6.3-17.5,16-34.9,29.2-52.4h23
			c13.4,17.3,23.3,34.8,29.7,52.6c6.4,17.8,10.5,35.9,12.3,54.2c1.8,18.3,2.7,37.1,2.7,56.3v44.4h-35.8v-40.9h-40.6v40.9H262.4z
			 M297.9,133h40.3c-0.9-14.9-2.9-29.8-6.1-44.7c-3.2-14.9-7.9-28.9-14.1-41.9c-6.4,13.4-11.2,27.5-14.4,42.2
			C300.4,103.2,298.5,118.1,297.9,133z"/>
		<path class="st0" d="M407.2,207.4V33.6H374V0h102v33.6h-33.2v173.9H407.2z"/>
	</g>
	<g>
		<path class="st0" d="M33.2,435.6V261.7H0v-33.6h102v33.6H68.7v173.9H33.2z"/>
		<path class="st0" d="M137.3,437.6V230.9h36.1v206.8H137.3z"/>
		<path class="st0" d="M215.1,435.6V228.5h56.3c16.8,0,29.3,2.5,37.4,7.4c8.1,4.9,13.4,11.6,16,20.1c2.6,8.5,3.8,18.3,3.8,29.4v7
			l-0.3,7v5.8l-0.3,6.4c0,13-1.8,23.1-5.3,30.4c-3.5,7.2-8.6,12.4-15.3,15.5c-6.7,3.1-14.8,5-24.3,5.6c-9.5,0.6-20.1,1-31.8,1v71.6
			H215.1z M251.2,330.4c10,0,17.8-0.1,23.3-0.3c5.5-0.2,9.6-0.9,12.1-2.1c2.6-1.2,4.2-3.1,4.8-5.8c0.6-2.7,1-6.6,1-11.7v-28.8
			c0-7-1.6-11.9-4.8-14.7c-3.2-2.8-7.2-4.3-12.1-4.6s-10-0.5-15.3-0.5h-9V330.4z"/>
		<path class="st0" d="M404.3,435.6c-13,0-23.3-1.4-30.8-4.3c-7.6-2.9-13.2-7-16.8-12.5c-3.6-5.4-5.9-12.2-6.9-20.3
			c-1-8.1-1.4-17.3-1.4-27.5h35.5v6.1l-0.3,5.8v5.1c0,5.3,1,9,2.9,10.9s7,2.9,15.3,2.9h5.4c5.3-0.4,9.2-0.9,11.7-1.4
			c2.4-0.5,4-1.8,4.6-3.8c0.6-2,1-5.4,1-10.1v-3.5l0.3-4.2v-4.5l0.3-8.3c0-1.5-0.1-3.7-0.2-6.7c-0.1-3-0.6-6.6-1.4-10.9
			c-0.9-1.9-3.3-3.1-7.2-3.7c-3.9-0.5-7.5-0.8-10.7-0.8h-1.3c-13,0-23.3-1.4-30.8-4.2c-7.6-2.8-13.2-6.8-16.8-12.1
			c-3.6-5.3-5.9-11.9-6.9-19.7c-1-7.8-1.4-16.8-1.4-27c0-19,4.2-32.4,12.5-40.4c8.3-8,22.8-12,43.5-12c20.9,0,35.4,4.2,43.6,12.6
			c8.2,8.4,12.3,22.2,12.3,41.4h-35.8c0-6.8-0.3-11.7-1-14.5s-2.4-4.6-5.3-5.1c-2.9-0.5-7.5-0.8-13.9-0.8c-6.4,0-11,0.3-13.9,1
			c-2.9,0.6-4.7,2.3-5.4,5c-0.8,2.7-1.1,7-1.1,12.9v5.1l-0.3,7.4c0,1.1,0,2.8,0.2,5.3c0.1,2.5,0.7,5.2,1.8,8.2
			c0.2,0.6,2,1.3,5.3,2.1c3.3,0.7,7.8,1.1,13.6,1.1c14.1,0,24.9,1.7,32.6,5c7.7,3.3,13.2,7.9,16.5,13.7c3.3,5.9,5.3,12.8,5.9,20.8
			c0.6,8,1,16.8,1,26.4v7c0,19.2-4.1,32.8-12.3,40.8C439.7,431.6,425.2,435.6,404.3,435.6z"/>
	</g>
</g>
</svg>
