<?xml version="1.0" encoding="utf-8"?>
<!-- Generator: Adobe Illustrator 27.8.0, SVG Export Plug-In . SVG Version: 6.00 Build 0)  -->
<svg version="1.1" id="Camada_1" xmlns="http://www.w3.org/2000/svg" xmlns:xlink="http://www.w3.org/1999/xlink" x="0px" y="0px"
	 viewBox="0 0 344.8 703.3" style="enable-background:new 0 0 344.8 703.3;" xml:space="preserve">
<style type="text/css">
	.st0{fill:#012AFE;}
	.st1{fill:#1D1D1B;}
</style>
<g>
	<g>
		<g>
			<g>
				<g>
					<path class="st0" d="M48.2,536.6c-15,0-25.5-2.9-31.5-8.7s-9-15.6-9-29.5v-74.1c0-13.7,3-23.5,9-29.3c6-5.8,16.5-8.7,31.5-8.7
						c15.1,0,25.7,3,31.6,9.1c5.9,6.1,8.9,16.1,8.9,30H62.1l-0.5-6.3c-0.5-3.4-1-5.7-1.5-6.8c-0.5-1.2-2.1-1.7-4.7-1.7h-7.2
						c-5.4,0-9.2,0.7-11.5,2.1c-2.2,1.4-3.4,5.2-3.4,11.6v74.1c0,4.2,0.5,7.2,1.6,9c1.1,1.9,2.9,3,5.3,3.5c2.5,0.5,5.8,0.8,10,1.2
						h1.2c4.9,0,8.1-1.7,9.4-5.2c1.3-3.5,2-9,2-16.6v-13H41.5v-24.5h47.2v27.1c0,9.3-0.4,17.4-1.2,24.5c-0.8,7.1-2.5,13-5.1,17.7
						c-2.6,4.7-6.7,8.3-12.2,10.8C64.8,535.4,57.5,536.6,48.2,536.6z"/>
					<path class="st0" d="M141.3,536.6c-15,0-25.4-3-31.4-8.9c-5.9-5.9-8.9-15.7-8.9-29.3v-73.9c0-13.7,3-23.5,8.9-29.4
						c5.9-5.9,16.4-8.8,31.4-8.8c14.8,0,25.3,2.9,31.4,8.7c6.1,5.8,9.1,15.6,9.1,29.5V491c0,7.4-0.4,14-1.2,19.7
						c-0.8,5.7-2.5,10.5-5.2,14.4c-2.7,3.9-6.8,6.8-12.2,8.7C157.8,535.6,150.5,536.6,141.3,536.6z M141.7,511.6
						c6.8,0,10.8-1.7,12.2-5c1.3-3.3,2-8.5,2-15.6v-66.4c0-4.5-0.3-7.7-0.8-9.6c-0.5-1.9-1.8-3.1-3.8-3.5c-2-0.4-5.3-0.6-10-0.6
						c-4.6,0-8,0.3-10.1,1c-2.1,0.7-3.4,2-3.9,3.9c-0.5,1.9-0.8,4.8-0.8,8.7l0.5,67.6c0,5.2,0.3,9.3,0.9,12c0.6,2.8,2,4.7,4.2,5.8
						C134.2,511.1,137.4,511.6,141.7,511.6z"/>
					<path class="st0" d="M190.1,536.6v-32.2c0-14.4,0.7-28.1,2-41.3c1.3-13.2,4.2-26.1,8.8-38.8c4.6-12.7,11.6-25.3,21.2-38h16.7
						c9.7,12.5,16.9,25.2,21.5,38.1c4.6,12.9,7.6,26,8.9,39.2c1.3,13.3,2,26.9,2,40.7v32.2h-25.9V507h-29.4v29.6H190.1z
						 M215.8,482.7H245c-0.6-10.8-2.1-21.6-4.4-32.4c-2.3-10.8-5.7-20.9-10.2-30.3c-4.6,9.7-8.1,19.9-10.4,30.6
						C217.7,461.1,216.3,471.9,215.8,482.7z"/>
					<path class="st0" d="M295,536.6V410.7h-24.1v-24.3h73.9v24.3h-24.1v125.9H295z"/>
				</g>
				<g>
					<path class="st0" d="M24.1,701.8V575.9H0v-24.3h73.9v24.3H49.8v125.9H24.1z"/>
					<path class="st0" d="M99.5,703.3V553.6h26.2v149.8H99.5z"/>
					<path class="st0" d="M155.8,701.8v-150h40.7c12.2,0,21.2,1.8,27.1,5.3c5.9,3.6,9.7,8.4,11.6,14.6c1.9,6.2,2.8,13.3,2.8,21.3
						v5.1l-0.2,5.1v4.2l-0.2,4.6c0,9.4-1.3,16.7-3.8,22c-2.5,5.2-6.3,9-11.1,11.2c-4.9,2.2-10.7,3.6-17.6,4.1
						c-6.9,0.5-14.5,0.7-23,0.7v51.9H155.8z M182,625.7c7.3,0,12.9-0.1,16.9-0.2c4-0.2,6.9-0.7,8.8-1.5c1.9-0.8,3-2.2,3.5-4.2
						c0.5-1.9,0.7-4.7,0.7-8.4v-20.8c0-5.1-1.2-8.6-3.5-10.6c-2.3-2-5.2-3.1-8.8-3.4c-3.6-0.2-7.3-0.3-11.1-0.3H182V625.7z"/>
					<path class="st0" d="M292.9,701.8c-9.4,0-16.9-1-22.3-3.1c-5.5-2.1-9.5-5.1-12.2-9c-2.6-3.9-4.3-8.8-5-14.7
						c-0.7-5.9-1-12.5-1-19.9h25.7v4.4l-0.2,4.2v3.7c0,3.9,0.7,6.5,2.1,7.9s5.1,2.1,11.1,2.1h3.9c3.9-0.3,6.7-0.7,8.5-1
						c1.8-0.4,2.9-1.3,3.4-2.8c0.5-1.5,0.7-3.9,0.7-7.3v-2.5l0.2-3v-3.2l0.2-6c0-1.1,0-2.7-0.1-4.9c-0.1-2.2-0.4-4.8-1-7.9
						c-0.6-1.4-2.4-2.3-5.2-2.7c-2.9-0.4-5.4-0.6-7.8-0.6h-0.9c-9.4,0-16.9-1-22.3-3c-5.5-2-9.5-4.9-12.2-8.8
						c-2.6-3.9-4.3-8.6-5-14.2c-0.7-5.6-1-12.2-1-19.6c0-13.7,3-23.5,9-29.3c6-5.8,16.5-8.7,31.5-8.7c15.1,0,25.7,3,31.6,9.1
						c5.9,6.1,8.9,16.1,8.9,30h-25.9c0-4.9-0.2-8.5-0.7-10.5c-0.5-2.1-1.7-3.3-3.8-3.7c-2.1-0.4-5.4-0.6-10.1-0.6
						c-4.6,0-8,0.2-10.1,0.7c-2.1,0.5-3.4,1.7-3.9,3.6c-0.5,1.9-0.8,5.1-0.8,9.4v3.7l-0.2,5.3c0,0.8,0,2,0.1,3.8
						c0.1,1.8,0.5,3.7,1.3,5.9c0.2,0.5,1.4,1,3.8,1.5c2.4,0.5,5.7,0.8,9.8,0.8c10.2,0,18.1,1.2,23.6,3.6c5.6,2.4,9.5,5.7,11.9,10
						c2.4,4.2,3.8,9.3,4.3,15c0.5,5.8,0.7,12.2,0.7,19.1v5.1c0,13.9-3,23.7-8.9,29.5C318.5,699,308,701.8,292.9,701.8z"/>
				</g>
			</g>
		</g>
	</g>
	<g>
		<path class="st0" d="M244.1,108.3c0.5,1,1.5,1.6,2.6,1.6h26c0.7,0,1.4-0.2,1.9-0.7l40.2-34.5c2-1.7,0.8-5.1-1.9-5.1h-83.6
			c-2.1,0-3.5,2.3-2.6,4.2L244.1,108.3z"/>
		<path class="st0" d="M343.6,211.5L288,155.9c-2.3-2.3-6.2-1-6.8,2.2l-8,46.4c-0.3,1.9-2,3.4-4,3.3L152.2,206
			c-2.5,0-4.3-2.3-3.9-4.8l8-42.5c0.6-3.1,4.5-4.4,6.7-2.1l13.6,13.3l-1.7,16.5c-0.2,3.1,0.7,2.6,2,1c2-2,4.2-3.3,6.7-4.2
			c0.8-0.3,1.7,0.4,1.6,1.3v0c-0.5,3.1-0.5,2.9,2,1.1s1.3-0.9,2-1.3c0.9-0.5,1.9-0.3,2.6,0.4l1.3,1.3c1.2,1.2,3,1.5,4.5,0.8l5.1-2.4
			l53.7-25.5c1.9-0.9,2.7-3.2,1.8-5.1l-43-87c-0.3-0.6-0.4-1.2-0.4-1.8V19.4c0-0.6-0.2-1.2-0.7-1.6L184,0.4l-3.2,0l-44.9,38.1
			c-6.4,5.3-6.3,5.3,2,3.9s36.4-4.6,36.4-4.6c1.4-0.2,2.7,0.8,2.7,2.3v16c0,2.2-1.8,4-4,4l-47.8-0.3c-2.2,0-4-1.8-4-4
			c0,0,0.3-38.3,0-37.6c-0.3,0.8,0,0,0,0C111.6,10.9,90.5,0,90.5,0l-3.2,0c0,0-41.6,35.7-47.4,41s-7.9,6,2,3.9
			C52.3,43.2,79,37.7,79,37.7c1.4-0.2,2.7,0.8,2.7,2.3v25.3c0,2.2-1.8,4-4,4H4c-3.6,0-5.4,4.3-2.8,6.8l41.4,41.3
			c0.8,0.8,1.9,1.3,3.1,1.3l32.9-0.2c3.4,0,5.4,3.7,3.7,6.5l-47.6,76.9c-1.6,2.7,0.3,6.1,3.4,6.1l20.8,0.2c3.6,0,5.3,4.3,2.8,6.8
			L31,245.5c-1.2,1.2-1.5,3.2-0.7,4.7l56.7,106.5c1.4,2.7,5.3,2.9,6.9,0.3l41.9-66.7c1.7-2.7,5.7-2.4,7,0.4l30,63.1
			c1.3,2.8,5.3,3.1,7,0.5l38.2-58.4c1.7-2.7,5.7-2.3,7,0.6l26.4,59.4c1.3,3,5.4,3.2,7.1,0.5l85.6-139.9
			C345.2,214.8,344.9,212.8,343.6,211.5z M141.6,120.7c-0.4-0.3-0.7-0.6-1-1c-10.6-14.9,5.8-31.3,20.7-20.7c0.4,0.3,0.7,0.6,1,1
			C172.9,114.9,156.5,131.3,141.6,120.7z"/>
	</g>
</g>
</svg>
