<?xml version="1.0" encoding="UTF-8"?>
<svg id="Camada_1" xmlns="http://www.w3.org/2000/svg" version="1.1" viewBox="0 0 595.3 841.9">
  <!-- Generator: Adobe Illustrator 30.0.0, SVG Export Plug-In . SVG Version: 2.1.1 Build 123)  -->
  <defs>
    <style>
      .st0 {
        fill: #012afe;
      }
    </style>
  </defs>
  <g>
    <path class="st0" d="M126.2,409.6c-20.7,0-35.2-4-43.5-12-8.3-8-12.5-21.6-12.5-40.8v-102.3c0-19,4.2-32.4,12.5-40.4,8.3-8,22.8-12,43.5-12s35.4,4.2,43.6,12.6c8.2,8.4,12.3,22.2,12.3,41.4h-36.8l-.6-8.6c-.6-4.7-1.3-7.8-2.1-9.4-.7-1.6-2.9-2.4-6.6-2.4h-9.9c-7.5,0-12.7,1-15.8,2.9-3.1,1.9-4.6,7.2-4.6,16v102.3c0,5.8.7,9.9,2.2,12.5,1.5,2.6,3.9,4.2,7.4,4.8,3.4.6,8,1.2,13.7,1.6h1.6c6.8,0,11.1-2.4,12.9-7.2,1.8-4.8,2.7-12.4,2.7-22.9v-17.9h-29.4v-33.9h65.2v37.4c0,12.8-.5,24.1-1.6,33.9-1.1,9.8-3.4,18-7,24.5-3.6,6.5-9.2,11.5-16.8,14.9-7.6,3.4-17.7,5.1-30.5,5.1Z"/>
    <path class="st0" d="M254.6,409.6c-20.7,0-35.1-4.1-43.3-12.3-8.2-8.2-12.3-21.7-12.3-40.4v-102c0-19,4.1-32.5,12.3-40.6,8.2-8.1,22.6-12.1,43.3-12.1s34.9,4,43.3,12c8.4,8,12.6,21.6,12.6,40.8v91.7c0,10.2-.5,19.3-1.6,27.2-1.1,7.9-3.5,14.5-7.2,19.8-3.7,5.3-9.3,9.3-16.8,12-7.5,2.7-17.6,4-30.4,4ZM255.3,375c9.4,0,15-2.3,16.8-6.9,1.8-4.6,2.7-11.8,2.7-21.6v-91.7c0-6.2-.4-10.6-1.1-13.3-.7-2.7-2.5-4.3-5.3-4.8-2.8-.5-7.4-.8-13.7-.8s-11,.5-13.9,1.4c-2.9,1-4.7,2.8-5.4,5.4-.8,2.7-1.1,6.7-1.1,12l.6,93.3c0,7.2.4,12.8,1.3,16.6.8,3.8,2.8,6.5,5.8,8,3,1.5,7.5,2.2,13.4,2.2Z"/>
    <path class="st0" d="M322.1,409.6v-44.4c0-19.8.9-38.8,2.7-57.1,1.8-18.2,5.9-36.1,12.2-53.5,6.3-17.5,16-34.9,29.2-52.4h23c13.4,17.3,23.3,34.8,29.7,52.6,6.4,17.8,10.5,35.9,12.3,54.2,1.8,18.3,2.7,37.1,2.7,56.3v44.4h-35.8v-40.9h-40.6v40.9h-35.5ZM357.6,335.1h40.3c-.9-14.9-2.9-29.8-6.1-44.7-3.2-14.9-7.9-28.9-14.1-41.9-6.4,13.4-11.2,27.5-14.4,42.2-3.2,14.7-5.1,29.5-5.8,44.4Z"/>
    <path class="st0" d="M466.9,409.6v-173.9h-33.2v-33.6h102v33.6h-33.2v173.9h-35.5Z"/>
  </g>
  <g>
    <path class="st0" d="M92.9,637.7v-173.9h-33.2v-33.6h102v33.6h-33.2v173.9h-35.5Z"/>
    <path class="st0" d="M197,639.8v-206.8h36.1v206.8h-36.1Z"/>
    <path class="st0" d="M274.8,637.7v-207.1h56.3c16.8,0,29.3,2.5,37.4,7.4,8.1,4.9,13.4,11.6,16,20.1,2.6,8.5,3.8,18.3,3.8,29.4v7l-.3,7v5.8l-.3,6.4c0,13-1.8,23.1-5.3,30.4-3.5,7.2-8.6,12.4-15.3,15.5-6.7,3.1-14.8,5-24.3,5.6-9.5.6-20.1,1-31.8,1v71.6h-36.1ZM310.9,532.5c10,0,17.8-.1,23.3-.3,5.5-.2,9.6-.9,12.1-2.1,2.6-1.2,4.2-3.1,4.8-5.8.6-2.7,1-6.6,1-11.7v-28.8c0-7-1.6-11.9-4.8-14.7-3.2-2.8-7.2-4.3-12.1-4.6s-10-.5-15.3-.5h-9v68.4Z"/>
    <path class="st0" d="M464,637.7c-13,0-23.3-1.4-30.8-4.3-7.6-2.9-13.2-7-16.8-12.5-3.6-5.4-5.9-12.2-6.9-20.3-1-8.1-1.4-17.3-1.4-27.5h35.5v6.1l-.3,5.8v5.1c0,5.3,1,9,2.9,10.9,1.9,1.9,7,2.9,15.3,2.9h5.4c5.3-.4,9.2-.9,11.7-1.4,2.4-.5,4-1.8,4.6-3.8.6-2,1-5.4,1-10.1v-3.5l.3-4.2v-4.5l.3-8.3c0-1.5,0-3.7-.2-6.7-.1-3-.6-6.6-1.4-10.9-.9-1.9-3.3-3.1-7.2-3.7-3.9-.5-7.5-.8-10.7-.8h-1.3c-13,0-23.3-1.4-30.8-4.2-7.6-2.8-13.2-6.8-16.8-12.1-3.6-5.3-5.9-11.9-6.9-19.7-1-7.8-1.4-16.8-1.4-27,0-19,4.2-32.4,12.5-40.4,8.3-8,22.8-12,43.5-12s35.4,4.2,43.6,12.6c8.2,8.4,12.3,22.2,12.3,41.4h-35.8c0-6.8-.3-11.7-1-14.5-.6-2.9-2.4-4.6-5.3-5.1-2.9-.5-7.5-.8-13.9-.8s-11,.3-13.9,1-4.7,2.3-5.4,5c-.8,2.7-1.1,7-1.1,12.9v5.1l-.3,7.4c0,1.1,0,2.8.2,5.3.1,2.5.7,5.2,1.8,8.2.2.6,2,1.3,5.3,2.1,3.3.7,7.8,1.1,13.6,1.1,14.1,0,24.9,1.7,32.6,5,7.7,3.3,13.2,7.9,16.5,13.7,3.3,5.9,5.3,12.8,5.9,20.8.6,8,1,16.8,1,26.4v7c0,19.2-4.1,32.8-12.3,40.8-8.2,8-22.7,12-43.6,12Z"/>
  </g>
</svg>