<?xml version="1.0" encoding="UTF-8"?>
<svg id="Camada_1" xmlns="http://www.w3.org/2000/svg" version="1.1" viewBox="0 0 595.3 841.9">
  <!-- Generator: Adobe Illustrator 30.0.0, SVG Export Plug-In . SVG Version: 2.1.1 Build 123)  -->
  <defs>
    <style>
      .st0 {
        fill: #012afe;
      }
    </style>
  </defs>
  <g>
    <g>
      <path class="st0" d="M339.4,404.2c-12.4,0-21.1-2.4-26-7.2s-7.5-12.9-7.5-24.4v-61.2c0-11.4,2.5-19.4,7.5-24.2,5-4.8,13.7-7.2,26-7.2s21.2,2.5,26.1,7.6c4.9,5,7.4,13.3,7.4,24.8h-22l-.4-5.2c-.4-2.8-.8-4.7-1.2-5.6-.4-1-1.8-1.4-3.9-1.4h-5.9c-4.5,0-7.6.6-9.5,1.7-1.9,1.1-2.8,4.3-2.8,9.6v61.2c0,3.4.4,5.9,1.3,7.5.9,1.5,2.4,2.5,4.4,2.9,2,.4,4.8.7,8.2,1h1c4.1,0,6.7-1.4,7.8-4.3,1.1-2.9,1.6-7.4,1.6-13.7v-10.7h-17.6v-20.3h39v22.4c0,7.7-.3,14.4-1,20.3-.6,5.9-2,10.8-4.2,14.6-2.2,3.9-5.5,6.9-10,8.9-4.5,2-10.6,3.1-18.3,3.1Z"/>
      <path class="st0" d="M416.3,404.2c-12.4,0-21-2.5-25.9-7.4-4.9-4.9-7.4-13-7.4-24.2v-61.1c0-11.4,2.5-19.5,7.4-24.3,4.9-4.8,13.6-7.3,25.9-7.3s20.9,2.4,25.9,7.2c5,4.8,7.6,12.9,7.6,24.4v54.9c0,6.1-.3,11.5-1,16.3-.6,4.7-2.1,8.7-4.3,11.9-2.2,3.2-5.6,5.6-10.1,7.2-4.5,1.6-10.5,2.4-18.2,2.4ZM416.7,383.5c5.6,0,9-1.4,10.1-4.1,1.1-2.7,1.6-7,1.6-12.9v-54.9c0-3.7-.2-6.3-.7-7.9-.4-1.6-1.5-2.6-3.2-2.9-1.7-.3-4.4-.5-8.2-.5s-6.6.3-8.3.9c-1.7.6-2.8,1.7-3.3,3.3-.4,1.6-.7,4-.7,7.2l.4,55.9c0,4.3.3,7.7.8,10,.5,2.3,1.7,3.9,3.4,4.8,1.8.9,4.5,1.3,8,1.3Z"/>
      <path class="st0" d="M456.7,404.2v-26.6c0-11.9.5-23.3,1.6-34.2,1.1-10.9,3.5-21.6,7.3-32.1,3.8-10.5,9.6-20.9,17.5-31.4h13.8c8,10.3,14,20.8,17.8,31.5,3.8,10.7,6.3,21.5,7.4,32.4,1.1,11,1.6,22.2,1.6,33.7v26.6h-21.4v-24.5h-24.3v24.5h-21.2ZM478,359.6h24.1c-.5-8.9-1.7-17.9-3.6-26.8-1.9-8.9-4.7-17.3-8.4-25.1-3.8,8-6.7,16.5-8.6,25.3-1.9,8.8-3.1,17.7-3.4,26.6Z"/>
      <path class="st0" d="M543.4,404.2v-104.1h-19.9v-20.1h61.1v20.1h-19.9v104.1h-21.2Z"/>
    </g>
    <g>
      <path class="st0" d="M319.5,540.8v-104.1h-19.9v-20.1h61.1v20.1h-19.9v104.1h-21.2Z"/>
      <path class="st0" d="M381.8,542v-123.8h21.6v123.8h-21.6Z"/>
      <path class="st0" d="M428.4,540.8v-124h33.7c10.1,0,17.5,1.5,22.4,4.4,4.8,2.9,8,7,9.6,12.1,1.5,5.1,2.3,11,2.3,17.6v4.2l-.2,4.2v3.4l-.2,3.8c0,7.8-1.1,13.8-3.2,18.2-2.1,4.3-5.2,7.4-9.2,9.3-4,1.9-8.9,3-14.5,3.4-5.7.4-12,.6-19,.6v42.9h-21.6ZM450,477.8c6,0,10.7,0,14-.2,3.3-.1,5.7-.5,7.3-1.2,1.5-.7,2.5-1.8,2.9-3.4.4-1.6.6-3.9.6-7v-17.2c0-4.2-1-7.1-2.9-8.8-1.9-1.7-4.3-2.6-7.3-2.8s-6-.3-9.2-.3h-5.4v41Z"/>
      <path class="st0" d="M541.7,540.8c-7.8,0-13.9-.9-18.5-2.6-4.5-1.7-7.9-4.2-10-7.5-2.2-3.3-3.5-7.3-4.1-12.2-.6-4.8-.9-10.3-.9-16.5h21.2v3.6l-.2,3.4v3.1c0,3.2.6,5.4,1.7,6.5s4.2,1.7,9.2,1.7h3.3c3.2-.3,5.5-.5,7-.9,1.5-.3,2.4-1.1,2.8-2.3.4-1.2.6-3.2.6-6v-2.1l.2-2.5v-2.7l.2-5c0-.9,0-2.2,0-4,0-1.8-.4-4-.9-6.5-.5-1.1-1.9-1.9-4.3-2.2-2.4-.3-4.5-.5-6.4-.5h-.8c-7.8,0-13.9-.8-18.5-2.5-4.5-1.7-7.9-4.1-10-7.3-2.2-3.2-3.5-7.1-4.1-11.8-.6-4.7-.9-10-.9-16.2,0-11.4,2.5-19.4,7.5-24.2,5-4.8,13.6-7.2,26-7.2s21.2,2.5,26.1,7.6c4.9,5,7.4,13.3,7.4,24.8h-21.4c0-4.1-.2-7-.6-8.7s-1.4-2.7-3.2-3.1c-1.7-.3-4.5-.5-8.3-.5s-6.6.2-8.3.6-2.8,1.4-3.3,3c-.4,1.6-.7,4.2-.7,7.8v3.1l-.2,4.4c0,.6,0,1.7,0,3.2,0,1.5.4,3.1,1.1,4.9.1.4,1.2.8,3.2,1.2,2,.4,4.7.7,8.1.7,8.4,0,14.9,1,19.5,3,4.6,2,7.9,4.7,9.9,8.2,2,3.5,3.2,7.7,3.5,12.4.4,4.8.6,10,.6,15.8v4.2c0,11.5-2.5,19.6-7.4,24.4-4.9,4.8-13.6,7.2-26.1,7.2Z"/>
    </g>
  </g>
  <g>
    <path class="st0" d="M191.9,358.1c.4.7,1.1,1.2,1.9,1.2h19.3c.5,0,1-.2,1.4-.5l29.9-25.6c1.5-1.3.6-3.8-1.4-3.8h-62.1c-1.6,0-2.6,1.7-1.9,3.1l12.9,25.6Z"/>
    <path class="st0" d="M265.8,434.8l-41.3-41.3c-1.7-1.7-4.6-.8-5,1.6l-5.9,34.5c-.2,1.4-1.5,2.5-3,2.5l-86.8-1.3c-1.8,0-3.2-1.7-2.9-3.5l6-31.6c.4-2.3,3.3-3.2,5-1.6l10.1,9.9-1.3,12.3c-.2,2.3.5,1.9,1.5.7,1.4-1.5,3.1-2.5,4.9-3.1s1.3.3,1.2,1h0c-.4,2.3-.4,2.2,1.5.8s.9-.7,1.5-1,1.4-.2,2,.3l.9.9c.9.9,2.2,1.1,3.4.6l3.8-1.8,39.8-18.9c1.4-.7,2-2.4,1.3-3.8l-31.9-64.6c-.2-.4-.3-.9-.3-1.3v-33.8c0-.4-.2-.9-.5-1.2l-22.3-12.9h-2.4s-33.3,28.3-33.3,28.3c-4.7,3.9-4.7,4,1.5,2.9s27-3.4,27-3.4c1-.2,2,.6,2,1.7v11.9c0,1.7-1.3,3-3,3l-35.5-.2c-1.6,0-3-1.3-3-3,0,0,.2-28.5,0-27.9s0,0,0,0c-7.1-5.3-22.8-13.4-22.8-13.4h-2.4s-30.9,26.5-35.2,30.4-5.9,4.4,1.5,2.9c7.7-1.2,27.6-5.3,27.6-5.3,1-.2,2,.6,2,1.7v18.8c0,1.6-1.3,3-3,3H13.7c-2.7,0-4,3.2-2.1,5.1l30.7,30.6c.6.6,1.4.9,2.3.9l24.4-.2c2.5,0,4,2.7,2.7,4.9l-35.3,57.1c-1.2,2,.2,4.5,2.5,4.5h15.5c2.6.1,3.9,3.3,2.1,5.2l-22.8,22.8c-.9.9-1.1,2.3-.5,3.5l42.1,79.1c1.1,2,3.9,2.1,5.1.2l31.1-49.5c1.2-2,4.2-1.8,5.2.3l22.3,46.8c1,2.1,3.9,2.3,5.2.4l28.4-43.4c1.3-2,4.3-1.7,5.2.4l19.6,44.1c1,2.2,4,2.4,5.3.3l63.6-103.9c.7-1.2.5-2.7-.4-3.7ZM115.8,367.3c-.3-.2-.5-.4-.7-.7-7.9-11.1,4.3-23.3,15.4-15.4s.5.4.7.7c7.9,11.1-4.3,23.3-15.4,15.4Z"/>
  </g>
</svg>