<?xml version="1.0" encoding="UTF-8"?>
<svg id="Camada_1" xmlns="http://www.w3.org/2000/svg" version="1.1" viewBox="0 0 595.3 841.9">
  <!-- Generator: Adobe Illustrator 30.0.0, SVG Export Plug-In . SVG Version: 2.1.1 Build 123)  -->
  <defs>
    <style>
      .st0 {
        fill: #012afe;
      }
    </style>
  </defs>
  <path class="st0" d="M403.7,315.6c.7,1.4,2.2,2.3,3.8,2.3h38.5c1,0,2-.4,2.8-1l59.5-51.1c3-2.6,1.2-7.5-2.8-7.5h-123.7c-3.2,0-5.2,3.3-3.8,6.2l25.7,51.1Z"/>
  <path class="st0" d="M550.9,468.4l-82.3-82.3c-3.4-3.4-9.2-1.6-10,3.2l-11.9,68.7c-.5,2.9-3,5-5.9,4.9l-173-2.7c-3.7,0-6.4-3.4-5.7-7l11.9-62.9c.9-4.7,6.6-6.5,10-3.1l20.1,19.7-2.6,24.4c-.4,4.6,1,3.8,2.9,1.4,2.9-3,6.2-5,9.9-6.2,1.3-.4,2.5.6,2.4,2h0c-.7,4.6-.7,4.3,3,1.6,3.7-2.7,1.9-1.4,2.9-1.9s2.9-.4,3.9.6l1.9,1.9c1.8,1.7,4.5,2.2,6.7,1.1l7.5-3.6,79.4-37.7c2.8-1.3,4-4.7,2.6-7.5l-63.6-128.7c-.4-.8-.6-1.7-.6-2.6v-67.4c0-.9-.4-1.8-1-2.4l-44.4-25.7h-4.8s-66.4,56.4-66.4,56.4c-9.4,7.9-9.3,7.9,3,5.7,12.3-2.2,53.8-6.9,53.8-6.9,2.1-.4,4,1.2,4,3.3v23.6c0,3.3-2.7,6-6,5.9l-70.7-.5c-3.3,0-5.9-2.7-5.9-5.9,0,0,.4-56.7,0-55.6s0,0,0,0c-14.2-10.6-45.5-26.7-45.5-26.7h-4.8s-61.5,52.8-70.1,60.6c-8.6,7.8-11.7,8.8,3,5.7,15.4-2.5,55-10.6,55-10.6,2.1-.4,4,1.2,4,3.3v37.4c0,3.3-2.7,5.9-5.9,5.9H48.5c-5.3,0-7.9,6.4-4.2,10.1l61.2,61.1c1.2,1.2,2.8,1.9,4.5,1.9l48.7-.3c5,0,8.1,5.4,5.4,9.7l-70.4,113.7c-2.4,3.9.4,9,5,9.1l30.8.2c5.3,0,7.9,6.4,4.1,10.1l-45.4,45.4c-1.8,1.8-2.3,4.7-1,7l83.8,157.6c2.1,4,7.8,4.2,10.3.4l62-98.6c2.5-4,8.4-3.6,10.4.6l44.4,93.3c2,4.2,7.8,4.6,10.3.7l56.6-86.4c2.6-3.9,8.5-3.5,10.4.8l39.1,87.9c1.9,4.4,8,4.8,10.5.7l126.7-207c1.4-2.3,1.1-5.4-.9-7.3ZM252,334c-.5-.4-1-.9-1.4-1.4-15.8-22,8.6-46.4,30.6-30.6s1,.9,1.4,1.4c15.8,22-8.6,46.4-30.6,30.6Z"/>
</svg>